<?xml version="1.0" standalone="no"?><!DOCTYPE svg PUBLIC "-//W3C//DTD SVG 1.1//EN" "http://www.w3.org/Graphics/SVG/1.1/DTD/svg11.dtd"><svg t="1599616331796" class="icon" viewBox="0 0 1375 1024" version="1.1" xmlns="http://www.w3.org/2000/svg" p-id="3203" width="171.875" height="128" xmlns:xlink="http://www.w3.org/1999/xlink"><defs><style type="text/css"></style></defs><path d="M1299.577723 231.474011c-51.630817-20.976487-105.798543-25.909368-159.87231-26.848964-32.322113-0.587248-53.721418-10.593948-74.533476-34.436204C982.792831 75.735925 876.923818 23.024572 753.930662 5.219223c-105.211296-15.24495-206.194408 3.194627-299.895648 52.452963C294.98485 141.366726 204.125888 275.00081 179.273566 452.114712c-3.899325 27.530172-13.553677 43.667738-34.906003 58.654299-42.375793 29.714733-80.664342 64.315367-112.869005 105.234786-58.231481 74.016698-32.791911 149.019973 52.969741 180.026651 53.580479 19.379174 109.650888 24.711383 165.932707 26.191247 19.520113 0.516778 32.90936 5.426169 45.993238 20.436219 102.322037 117.191148 231.305119 178.170948 379.338516 181.365576 131.473012-1.268455 242.368865-37.372443 337.127153-117.731416 107.865655-91.51668 169.644112-208.09709 184.442753-348.825127 1.785233-17.030183 8.573816-27.459702 22.080513-36.221437 42.070424-27.271783 77.751594-61.942886 111.483101-98.657611 21.328836-23.184539 37.348953-50.127463 43.550289-80.711322 8.550326-41.671096-29.150975-91.822048-74.838846-110.402566M224.914456 759.245253c-5.14429 7.117442-12.895959 6.506704-20.41273 5.09731-37.936201-4.251673-76.365689-3.077178-112.469677-20.624139-44.090556-21.422796-56.281818-50.221422-30.137551-88.087153 24.687893-35.704659 58.34893-60.603961 88.369032-89.895876 13.013409-12.68455 21.117427-2.60738 22.597291 10.476499 4.932881 44.301966 21.140917 85.315344 34.553654 127.221339 3.805365 11.979853 9.536902 22.057023 16.630854 32.063723 5.00335 7.093952 6.530194 15.855688 0.869127 23.748297m887.143336-140.140788c-31.335537 126.704561-106.432771 219.889024-220.570231 281.174192-65.513352 35.164392-140.352197 52.194574-222.073586 52.147595-97.858955-2.58389-197.103814-43.691228-282.748016-118.905912-4.768451-4.181204-11.557034-8.338917-9.489923-15.902667 2.278521-8.456367 10.453009-5.989926 16.654345-6.694624 81.040181-9.255024 161.070296-23.748296 239.362157-46.721426 15.432869-4.557042 22.385882 5.285229 31.124127 13.412737 54.355646 50.550281 119.42269 46.697936 167.858879-9.184553 11.697974-13.506697 16.818774-28.986546 20.248301-45.664381 3.922815-19.073805 14.681192-28.869096 33.989896-36.291907 67.181135-25.885878 135.207907-50.338872 197.667571-87.194536 8.432877-5.00335 17.476491-15.832198 27.671111-8.808716 10.734888 7.352341 2.60738 19.402664 0.305369 28.634198m-6.999993-90.553594c-75.590522 41.835525-154.328692 76.647568-234.640685 108.241494-17.85233 7.023482-31.288557 5.09731-44.936193-9.959721-60.580471-66.899257-144.486421-37.513382-180.42598 27.224803-3.546976 6.412745-7.6812 14.140924-7.117442 20.906018 2.372481 29.127485-14.258374 40.144252-39.134186 45.077132-80.805282 16.020117-160.530028 37.654322-243.472891 42.046935-23.301988 1.244965-36.268417-6.412745-47.026794-26.120778-38.405999-70.446233-63.56369-144.063603-59.265037-222.331974-5.567108-182.516581 120.009937-347.157343 274.808428-408.583451 225.97291-89.637487 472.2411 20.083871 567.046366 232.784984 20.765078 46.627466 29.714733 96.754929 37.208014 146.999841 3.006708 20.2483-5.214759 33.825467-23.0436 43.714717m198.348779-166.848812c-21.164407 40.073782-57.879132 65.654291-90.999901 94.358958-10.711398 9.255024-20.29528 3.969794-21.892594-9.466433-4.674492-39.369085-17.476491-76.436159-29.456344-113.879071a179.087055 179.087055 0 0 0-18.181188-40.70801c-4.838921-7.822139-10.922807-16.489915-6.436235-26.120777 5.285229-11.345625 16.513405-5.02684 24.359034-7.046972 38.429489 6.483214 77.258306 4.204693 113.268334 21.422795 42.704652 20.41273 51.207998 40.120762 29.338894 81.43951" fill="#13227a" p-id="3204"></path></svg>